<svg xmlns="http://www.w3.org/2000/svg" width="22" height="22" fill="none" viewBox="0 0 22 22"><path fill="#141415" fill-rule="evenodd" d="M11.003.3c5.976 0 10.8 4.824 10.8 10.8s-4.824 10.8-10.8 10.8-10.8-4.824-10.8-10.8v-.01C.308 5.13 5.02.3 11.003.3m-3.5 17c0 1.924 1.576 3.5 3.5 3.5s3.5-1.576 3.5-3.5v-5.8h-7zM1.21 11.5a9.79 9.79 0 0 0 6.466 8.824A4.48 4.48 0 0 1 6.503 17.3v-5.8zm14.292 5.8a4.48 4.48 0 0 1-1.174 3.024 9.79 9.79 0 0 0 6.466-8.824h-5.292zM7.67 1.883C4.105 3.18 1.534 6.508 1.23 10.5h5.272V4.9A4.48 4.48 0 0 1 7.67 1.883m3.832-.483h-.5a3.51 3.51 0 0 0-3.5 3.5v5.6h7V4.8c0-1.754-1.31-3.22-3-3.464zm2.954.523A4.48 4.48 0 0 1 15.503 4.8v5.7h5.282a9.79 9.79 0 0 0-6.328-8.577" clip-rule="evenodd"/></svg>